<svg width="644" height="82" viewBox="0 0 644 82" fill="none" xmlns="http://www.w3.org/2000/svg">
<path d="M0.0625 1.45454H26.6023L44.858 45.9432H45.7784L64.0341 1.45454H90.5739V80H69.7102V34.5909H69.0966L51.608 79.3864H39.0284L21.5398 34.2841H20.9261V80H0.0625V1.45454ZM100.68 80V1.45454H157.288V18.6364H122.004V32.1364H154.373V49.3182H122.004V62.8182H157.134V80H100.68ZM198.085 80H167.863V1.45454H197.778C205.858 1.45454 212.838 3.02699 218.718 6.17188C224.625 9.29119 229.176 13.7912 232.372 19.6719C235.593 25.527 237.204 32.5455 237.204 40.7273C237.204 48.9091 235.606 55.9403 232.41 61.821C229.214 67.6761 224.689 72.1761 218.833 75.321C212.978 78.4403 206.062 80 198.085 80ZM189.187 61.8977H197.318C201.204 61.8977 204.515 61.2713 207.251 60.0185C210.012 58.7656 212.109 56.6051 213.541 53.5369C214.998 50.4687 215.727 46.1989 215.727 40.7273C215.727 35.2557 214.985 30.9858 213.502 27.9176C212.045 24.8494 209.897 22.6889 207.059 21.4361C204.247 20.1832 200.795 19.5568 196.704 19.5568H189.187V61.8977Z" fill="#845ADF"/>
<path d="M320.4 30.9091H298.769C298.616 29.1193 298.207 27.4957 297.542 26.0384C296.903 24.581 296.008 23.3281 294.857 22.2798C293.732 21.206 292.364 20.3878 290.754 19.8253C289.143 19.2372 287.315 18.9432 285.269 18.9432C281.69 18.9432 278.66 19.8125 276.18 21.5511C273.725 23.2898 271.859 25.7827 270.58 29.0298C269.327 32.277 268.701 36.1761 268.701 40.7273C268.701 45.5341 269.34 49.5611 270.619 52.8082C271.923 56.0298 273.802 58.4588 276.256 60.0952C278.711 61.706 281.664 62.5114 285.116 62.5114C287.085 62.5114 288.849 62.2685 290.408 61.7827C291.968 61.2713 293.323 60.5426 294.474 59.5966C295.624 58.6506 296.558 57.5128 297.273 56.1832C298.015 54.8281 298.513 53.3068 298.769 51.6193L320.4 51.7727C320.144 55.0966 319.211 58.4844 317.6 61.9361C315.989 65.3622 313.701 68.5327 310.735 71.4474C307.795 74.3366 304.151 76.6634 299.805 78.4276C295.458 80.1918 290.408 81.0739 284.656 81.0739C277.445 81.0739 270.977 79.527 265.249 76.4332C259.548 73.3395 255.035 68.7884 251.711 62.7798C248.413 56.7713 246.763 49.4205 246.763 40.7273C246.763 31.983 248.451 24.6193 251.826 18.6364C255.201 12.6278 259.752 8.08948 265.479 5.0213C271.207 1.92755 277.599 0.380679 284.656 0.380679C289.616 0.380679 294.18 1.05823 298.347 2.41335C302.515 3.76846 306.171 5.75 309.316 8.35795C312.461 10.9403 314.992 14.1236 316.91 17.9077C318.827 21.6918 319.991 26.0256 320.4 30.9091ZM358.762 81.0739C352.37 81.0739 346.898 79.8082 342.347 77.277C337.796 74.7202 334.306 71.1662 331.877 66.6151C329.448 62.0384 328.233 56.733 328.233 50.6989C328.233 44.6648 329.448 39.3722 331.877 34.821C334.306 30.2443 337.796 26.6903 342.347 24.1591C346.898 21.6023 352.37 20.3239 358.762 20.3239C365.154 20.3239 370.625 21.6023 375.176 24.1591C379.728 26.6903 383.218 30.2443 385.647 34.821C388.076 39.3722 389.29 44.6648 389.29 50.6989C389.29 56.733 388.076 62.0384 385.647 66.6151C383.218 71.1662 379.728 74.7202 375.176 77.277C370.625 79.8082 365.154 81.0739 358.762 81.0739ZM358.915 65.4261C360.705 65.4261 362.252 64.8253 363.556 63.6236C364.86 62.4219 365.87 60.7088 366.586 58.4844C367.301 56.2599 367.659 53.6136 367.659 50.5455C367.659 47.4517 367.301 44.8054 366.586 42.6065C365.87 40.3821 364.86 38.669 363.556 37.4673C362.252 36.2656 360.705 35.6648 358.915 35.6648C357.023 35.6648 355.4 36.2656 354.044 37.4673C352.689 38.669 351.654 40.3821 350.938 42.6065C350.222 44.8054 349.864 47.4517 349.864 50.5455C349.864 53.6136 350.222 56.2599 350.938 58.4844C351.654 60.7088 352.689 62.4219 354.044 63.6236C355.4 64.8253 357.023 65.4261 358.915 65.4261ZM419.051 46.8636V80H397.881V21.0909H417.978V32.2898H418.591C419.87 28.5568 422.12 25.6293 425.341 23.5071C428.588 21.3849 432.373 20.3239 436.694 20.3239C440.861 20.3239 444.479 21.2827 447.547 23.2003C450.641 25.0923 453.032 27.7003 454.719 31.0241C456.432 34.348 457.276 38.1449 457.25 42.4148V80H436.08V46.8636C436.105 43.9489 435.364 41.6605 433.855 39.9986C432.373 38.3366 430.301 37.5057 427.642 37.5057C425.904 37.5057 424.382 37.8892 423.078 38.6562C421.8 39.3977 420.816 40.4716 420.125 41.8778C419.435 43.2585 419.077 44.9205 419.051 46.8636ZM502.832 21.0909V36.4318H464.02V21.0909H502.832ZM471.537 6.97727H492.707V61.054C492.707 61.8722 492.848 62.5625 493.129 63.125C493.41 63.6619 493.845 64.071 494.433 64.3523C495.021 64.608 495.775 64.7358 496.696 64.7358C497.335 64.7358 498.076 64.6591 498.92 64.5057C499.789 64.3523 500.429 64.2244 500.838 64.1222L503.906 79.0028C502.96 79.2841 501.605 79.6293 499.841 80.0384C498.102 80.4474 496.031 80.7159 493.627 80.8438C488.77 81.0994 484.691 80.6009 481.393 79.348C478.095 78.0696 475.615 76.0625 473.953 73.3267C472.291 70.5909 471.485 67.1648 471.537 63.0483V6.97727ZM511.471 80V21.0909H532.028V32.2898H532.641C533.715 28.1477 535.415 25.1179 537.742 23.2003C540.094 21.2827 542.843 20.3239 545.988 20.3239C546.908 20.3239 547.816 20.4006 548.711 20.554C549.631 20.6818 550.513 20.8736 551.357 21.1293V39.1932C550.309 38.8352 549.018 38.5668 547.484 38.3878C545.95 38.2088 544.633 38.1193 543.533 38.1193C541.462 38.1193 539.596 38.5923 537.934 39.5384C536.298 40.4588 535.006 41.7628 534.06 43.4503C533.114 45.1122 532.641 47.0682 532.641 49.3182V80H511.471ZM583.305 81.0739C576.913 81.0739 571.441 79.8082 566.89 77.277C562.339 74.7202 558.849 71.1662 556.42 66.6151C553.991 62.0384 552.776 56.733 552.776 50.6989C552.776 44.6648 553.991 39.3722 556.42 34.821C558.849 30.2443 562.339 26.6903 566.89 24.1591C571.441 21.6023 576.913 20.3239 583.305 20.3239C589.697 20.3239 595.168 21.6023 599.719 24.1591C604.271 26.6903 607.761 30.2443 610.19 34.821C612.619 39.3722 613.833 44.6648 613.833 50.6989C613.833 56.733 612.619 62.0384 610.19 66.6151C607.761 71.1662 604.271 74.7202 599.719 77.277C595.168 79.8082 589.697 81.0739 583.305 81.0739ZM583.458 65.4261C585.248 65.4261 586.795 64.8253 588.099 63.6236C589.403 62.4219 590.413 60.7088 591.129 58.4844C591.844 56.2599 592.202 53.6136 592.202 50.5455C592.202 47.4517 591.844 44.8054 591.129 42.6065C590.413 40.3821 589.403 38.669 588.099 37.4673C586.795 36.2656 585.248 35.6648 583.458 35.6648C581.566 35.6648 579.942 36.2656 578.587 37.4673C577.232 38.669 576.197 40.3821 575.481 42.6065C574.765 44.8054 574.407 47.4517 574.407 50.5455C574.407 53.6136 574.765 56.2599 575.481 58.4844C576.197 60.7088 577.232 62.4219 578.587 63.6236C579.942 64.8253 581.566 65.4261 583.458 65.4261ZM643.594 1.45454V80H622.424V1.45454H643.594Z" fill="white"/>
</svg>
