<svg width="21" height="20" viewBox="0 0 21 20" fill="none" xmlns="http://www.w3.org/2000/svg">
<path d="M15.592 2.5C17.0877 2.5 18.3003 3.71256 18.3003 5.20833V14.7917C18.3003 16.2874 17.0877 17.5 15.592 17.5H6.00863C4.51286 17.5 3.30029 16.2874 3.30029 14.7917V5.20833C3.30029 3.71256 4.51286 2.5 6.00863 2.5H15.592ZM17.0503 7.08333H4.55029V14.7917C4.55029 15.5971 5.20321 16.25 6.00863 16.25H15.592C16.3974 16.25 17.0503 15.5971 17.0503 14.7917V7.08333ZM7.25863 12.0833C7.83392 12.0833 8.30029 12.5497 8.30029 13.125C8.30029 13.7003 7.83392 14.1667 7.25863 14.1667C6.68333 14.1667 6.21696 13.7003 6.21696 13.125C6.21696 12.5497 6.68333 12.0833 7.25863 12.0833ZM10.8003 12.0833C11.3756 12.0833 11.842 12.5497 11.842 13.125C11.842 13.7003 11.3756 14.1667 10.8003 14.1667C10.225 14.1667 9.75863 13.7003 9.75863 13.125C9.75863 12.5497 10.225 12.0833 10.8003 12.0833ZM7.25863 8.75C7.83392 8.75 8.30029 9.21637 8.30029 9.79167C8.30029 10.367 7.83392 10.8333 7.25863 10.8333C6.68333 10.8333 6.21696 10.367 6.21696 9.79167C6.21696 9.21637 6.68333 8.75 7.25863 8.75ZM10.8003 8.75C11.3756 8.75 11.842 9.21637 11.842 9.79167C11.842 10.367 11.3756 10.8333 10.8003 10.8333C10.225 10.8333 9.75863 10.367 9.75863 9.79167C9.75863 9.21637 10.225 8.75 10.8003 8.75ZM14.342 8.75C14.9173 8.75 15.3836 9.21637 15.3836 9.79167C15.3836 10.367 14.9173 10.8333 14.342 10.8333C13.7667 10.8333 13.3003 10.367 13.3003 9.79167C13.3003 9.21637 13.7667 8.75 14.342 8.75ZM15.592 3.75H6.00863C5.20321 3.75 4.55029 4.40292 4.55029 5.20833V5.83333H17.0503V5.20833C17.0503 4.40292 16.3974 3.75 15.592 3.75Z" fill="#161624"/>
</svg>
