<svg width="20" height="20" viewBox="0 0 20 20" fill="none" xmlns="http://www.w3.org/2000/svg">
<path d="M8.33317 2.29175C11.6699 2.29175 14.3748 4.99669 14.3748 8.33341C14.3748 9.77664 13.8688 11.1017 13.0245 12.1408L17.1084 16.2248C17.3525 16.4689 17.3525 16.8646 17.1084 17.1087C16.8866 17.3306 16.5393 17.3507 16.2947 17.1692L16.2246 17.1087L12.1405 13.0247C11.1014 13.869 9.7764 14.3751 8.33317 14.3751C4.99645 14.3751 2.2915 11.6701 2.2915 8.33341C2.2915 4.99669 4.99645 2.29175 8.33317 2.29175ZM8.33317 3.54175C5.68681 3.54175 3.5415 5.68705 3.5415 8.33341C3.5415 10.9798 5.68681 13.1251 8.33317 13.1251C10.9795 13.1251 13.1248 10.9798 13.1248 8.33341C13.1248 5.68705 10.9795 3.54175 8.33317 3.54175Z" fill="#232427" fill-opacity="0.5"/>
</svg>
